<svg version="1.1" xmlns="http://www.w3.org/2000/svg" xmlns:xlink="http://www.w3.org/1999/xlink" width="534.95081" height="92.07932" viewBox="0,0,534.95081,92.07932"><g transform="translate(-31.06801,-143.5)"><g data-paper-data="{&quot;isPaintingLayer&quot;:true}" fill-rule="nonzero" stroke-miterlimit="10" stroke-dasharray="" stroke-dashoffset="0" style="mix-blend-mode: normal"><g><g stroke-width="0.77378"><path d="M126.924,206.6034c0.0921,0.3266 2.268,8.2864 -3.2313,15.6575c-3.725,4.9893 -10.2147,11.3653 -26.7991,12.796c-8.1201,0.6987 -15.348,-1.3959 -20.5439,-4.5963c0.0766,0.0472 0.1486,0.0968 0.2259,0.1432l-0.0743,-0.0449c-4.8276,-2.1797 -10.949,-5.5526 -15.0136,-11.1974c0,0 -2.1875,4.5638 -11.9952,4.7549c-12.3936,0.2445 -17.3969,-6.6267 -18.0376,-11.8048c-0.6507,-5.254 0.9541,-11.2755 11.428,-13.0521c8.7685,-1.4834 13.535,1.1653 14.8535,2.0652l0.1021,0.1168c0.9665,-2.9891 2.5775,-4.3664 2.5775,-4.3664l-0.1323,-0.0472c-3.691,-1.3859 -8.5472,-3.5973 -14.4899,-7.132c-12.44,-7.4004 -12.317,-20.4564 -8.876,-25.1509c3.5617,-4.8524 14.113,-10.9506 29.0183,-2.6502c8.3878,4.6674 12.6328,11.8566 14.7429,17.2445l0.4457,-0.1765c0.5749,-0.3311 1.2024,-0.6577 1.8725,-0.9664l0.0867,-0.1532c-3.2685,-7.6806 -8.2036,-23.4734 5.8475,-24.6922c13.3632,-1.1591 12.2133,14.9433 11.1354,21.7897l0.1061,0.0163c1.7255,0.1214 3.4789,0.3745 5.2323,0.7861c-0.0387,-0.0804 -2.032,-4.2635 0.5277,-10.357c2.0056,-4.7696 10.99,-16.2046 18.2867,-10.1288c7.6984,6.4115 3.52,13.6634 -0.4867,18.1111c-3.4711,3.8511 -7.4639,5.425 -9.2753,6.1198l0.0503,0.0325c0.4457,0.2801 0.8914,0.5719 1.3317,0.8829c12.2536,8.623 11.2028,26.4757 11.2028,26.4757l-0.0263,-0.1269c-0.0488,-0.1996 -0.082,-0.3157 -0.0921,-0.349zM112.616,178.6289c0.7405,0.3908 1.4648,0.8133 2.1689,1.2644M100.0336,175.5717c-0.1587,0.8589 -0.3389,1.7132 -0.5355,2.5628M85.0369,182.1813c-0.7358,-1.3928 -1.3967,-2.8273 -2.0103,-4.2782M57.1499,206.995c-0.0782,-1.7178 0.082,-3.4503 0.5524,-5.1062" fill="#1b75bb" stroke="#000000" stroke-linecap="round" stroke-linejoin="round"/><path d="M46.0585,223.9887c-9.8982,-0.9595 -14.0256,-7.0058 -14.6036,-11.6771c-0.6507,-5.254 0.9541,-11.2755 11.428,-13.0521c1.5236,-0.2585 2.9264,-0.3916 4.2086,-0.431l0.099,0.0062c-4.1753,8.0751 -4.5699,17.5718 -1.1955,25.0542z" fill="#f1f1f2" stroke="#000000" stroke-linecap="butt" stroke-linejoin="miter"/><path d="M43.8594,188.6308c-10.4824,-7.5428 -10.1938,-19.449 -6.9424,-23.8866c3.3923,-4.6241 13.1381,-10.3772 26.9446,-3.7273l-0.1385,0.0456c-7.9243,2.4808 -14.78,8.7213 -17.9981,17.431c-1.2334,3.3443 -1.8215,6.7613 -1.8308,10.1002z" fill="#f1f1f2" stroke="#000000" stroke-linecap="butt" stroke-linejoin="miter"/><path d="M79.6112,165.7137c-0.5835,-6.0718 1.1893,-11.6601 9.3217,-12.3642c8.2052,-0.7103 10.9405,5.0853 11.5781,11.2508l-0.0635,-0.0635c-6.8564,-2.6602 -14.3482,-2.0892 -20.8031,1.081z" fill="#f1f1f2" stroke="#000000" stroke-linecap="butt" stroke-linejoin="miter"/><path d="M116.447,154.415c2.5527,-1.0655 5.2633,-1.0477 7.7711,1.0423c4.9298,4.1095 4.9886,8.5611 3.3381,12.4006l-0.0828,0.0062c-2.0087,-5.5426 -5.7871,-10.3385 -11.038,-13.4212z" fill="#f1f1f2" stroke="#000000" stroke-linecap="butt" stroke-linejoin="miter"/><path d="M116.177,195.7488v0c6.7481,4.9151 9.1298,5.213 10.7439,10.8399c0,0 2.3864,8.1456 -3.2282,15.673c-3.7258,4.9893 -10.2147,11.3645 -26.7984,12.796c-16.5813,1.4268 -29.4609,-8.7809 -28.8558,-16.3175c0.804,-10.0321 8.0752,-8.7213 21.9963,-17.3056c13.9195,-8.5789 14.1122,-18.7696 14.1122,-18.7696c0,0 7.3393,9.6614 12.03,13.0838z" fill="#e6e7e8" stroke="#000000" stroke-linecap="butt" stroke-linejoin="miter"/><path d="M107.2398,224.8368c-9.745,1.6636 -12.29,-12.0779 -12.29,-12.0779c0,0 4.3193,-1.1723 12.29,-2.3376c7.9684,-1.1638 9.8464,0.6074 9.8464,0.6074c0,0 -0.0999,12.1483 -9.8464,13.8081z" fill="#ffffff" stroke="#231f20" stroke-linecap="round" stroke-linejoin="miter"/><path d="M115.6841,206.7504c-0.3846,0 -0.7282,-0.2669 -0.8125,-0.6538c-0.1563,-0.7134 -0.0224,-1.4423 0.3706,-2.0536c0.3939,-0.6144 1.0036,-1.0361 1.7171,-1.1909c0.7103,-0.1547 1.4407,-0.0209 2.0528,0.3738c0.6097,0.3938 1.0307,1.0036 1.187,1.7178c0.0317,0.1547 0.0503,0.3087 0.0557,0.4627c0.0186,0.4596 -0.3397,0.8465 -0.8001,0.8635c-0.424,0.031 -0.8473,-0.3397 -0.862,-0.8001c-0.0031,-0.0603 -0.0124,-0.1207 -0.0217,-0.1764c-0.1238,-0.5726 -0.6902,-0.9401 -1.2604,-0.814c-0.2778,0.0603 -0.5154,0.2259 -0.6709,0.4627c-0.1525,0.2376 -0.2012,0.5208 -0.1432,0.797c0.0975,0.4504 -0.188,0.893 -0.636,0.992c-0.0596,0.0124 -0.1184,0.0193 -0.1764,0.0193z" fill="#231f20" stroke="none" stroke-linecap="butt" stroke-linejoin="miter"/><path d="M91.9383,208.63c-0.3823,0 -0.7266,-0.2647 -0.8117,-0.6539c-0.1525,-0.7111 -0.0225,-1.44 0.3706,-2.0513c0.3923,-0.612 1.0052,-1.0345 1.717,-1.1901c0.7104,-0.1594 1.4377,-0.0239 2.0482,0.3699c0.6144,0.3939 1.0361,1.0044 1.1932,1.7194c0.0325,0.1539 0.0511,0.3087 0.0588,0.465c0.0147,0.4596 -0.3412,0.8457 -0.8016,0.8628c-0.4658,0.0201 -0.8481,-0.3397 -0.8643,-0.8009c-0.0024,-0.058 -0.0101,-0.1192 -0.0225,-0.1757c-0.0596,-0.2777 -0.2251,-0.5168 -0.4642,-0.6716c-0.236,-0.1524 -0.5185,-0.202 -0.7932,-0.1424c-0.2778,0.0612 -0.5161,0.2252 -0.6701,0.4643c-0.1532,0.2375 -0.205,0.5192 -0.1439,0.7954c0.0975,0.4488 -0.1888,0.8922 -0.6376,0.9905c-0.0603,0.0131 -0.1199,0.0186 -0.1787,0.0186z" fill="#231f20" stroke="none" stroke-linecap="butt" stroke-linejoin="miter"/></g><g stroke="none" stroke-width="1" stroke-linecap="butt" stroke-linejoin="miter"><g><path d="M386.61,220.05c-2.51,1.79 -5.58,2.82 -9.11,3.03c-1.46,0.09 -2.88,0.17 -4.25,0.23c-0.75,0.05 -4.13,0.31 -15.47,1.21c-0.08,0.01 -0.17,0.01 -0.26,0.02c-1.96,0.11 -5.29,0.42 -9.91,0.93c-3.56,0.65 -4.49,0.76 -5.57,0.76c-4.77,0 -9.07,-1.88 -12.09,-5.28c-1.51,-1.7 -2.45,-3.83 -2.71,-6.08c-0.19,-1.72 -0.58,-5.18 1.42,-8.6c1.04,-1.81 3,-4.34 6.43,-6.01v-4.38c0,-1.79 -0.16,-5.58 -0.93,-13.49c-3.72,-1.47 -6.5,-4.3 -7.79,-8.05c-0.02,-0.06 -0.04,-0.12 -0.06,-0.19c-0.54,-1.64 -0.81,-3.3 -0.81,-4.94c0,-5.09 3.41,-13.71 16.19,-13.71c1.18,0 2.55,0.12 4.39,0.38c0.14,0.01 0.26,0.01 0.38,0.01c1.38,-0.16 3.82,-0.32 9.78,-0.39h0.14c5.32,0 8.56,2.26 10.35,4.17c2.35,2.5 3.64,5.83 3.64,9.37c0,4.99 -2.42,9.32 -6.48,11.65c-0.78,0.45 -1.61,0.83 -2.48,1.14c0.04,0.6 0.09,1.21 0.14,1.85c0.02,0.27 0.03,0.54 0.03,0.81v4.19c0.02,0.43 0.13,2.13 0.78,8.61c0.11,-0.01 0.22,-0.02 0.33,-0.03c-0.07,-0.38 -0.14,-0.74 -0.21,-1.1c-0.53,-2.68 -0.04,-5.44 1.34,-7.76c1.05,-2.18 2.76,-4.07 5.01,-5.44c2.37,-1.45 5.1,-2.22 7.87,-2.22c2.34,0 4.61,0.61 6.58,1.75c2.18,1.27 4.99,3.79 6.32,8.69c0.66,2.45 0.85,4.8 0.58,7.02c-0.03,0.3 -0.08,1.58 0.34,4.66c0.26,0.52 0.5,1.06 0.74,1.65c0.23,0.56 0.42,1.13 0.55,1.71c1.25,5.35 -0.75,10.65 -5.2,13.83z" fill="#1b75bb"/><path d="M381.099,208.717c0.232,0.998 -0.061,1.79 -0.881,2.375c-0.82,0.587 -1.949,0.924 -3.387,1.012c-1.438,0.088 -2.828,0.162 -4.178,0.22c-0.879,0.055 -6.128,0.466 -15.744,1.231c-2.229,0.124 -5.864,0.465 -10.907,1.021c-2.346,0.435 -3.665,0.65 -3.958,0.65c-1.643,0 -2.933,-0.528 -3.87,-1.584c-0.118,-1.056 -0.118,-1.671 0,-1.847c0.703,-1.289 2.022,-2.023 3.958,-2.199c1.583,-0.117 3.137,-0.233 4.662,-0.352c0.058,0 0.116,-0.059 0.176,-0.177c0.117,-2.403 -0.176,-5.159 -0.88,-8.268v-4.926c0,-3.049 -0.352,-8.15 -1.056,-15.306c-0.118,-1.759 -0.294,-4.31 -0.527,-7.652c-0.352,-0.233 -0.822,-0.321 -1.407,-0.264c-0.763,0.118 -1.231,0.146 -1.407,0.088c-0.88,-0.121 -1.79,-0.24 -2.728,-0.361c-1.173,-0.242 -1.906,-0.785 -2.198,-1.63c-0.177,-0.543 -0.265,-1.056 -0.265,-1.538c0,-1.811 1.729,-2.716 5.19,-2.716c0.703,0 1.816,0.118 3.342,0.352c1.231,0.06 2.053,0.06 2.463,0c1.231,-0.176 4.192,-0.293 8.885,-0.352c1.113,0 1.891,0.234 2.33,0.702c0.44,0.469 0.66,1.083 0.66,1.843c0,1.055 -0.323,1.757 -0.968,2.107c-0.879,0.527 -2.258,0.761 -4.134,0.702c-2.347,-0.058 -3.842,-0.029 -4.486,0.088c0.117,2.81 0.381,6.993 0.792,12.551v4.302c0,0.937 0.352,4.857 1.056,11.762c0.176,1.581 0.409,4.067 0.703,7.461c0.117,0.206 0.265,0.308 0.44,0.308c2.11,0.323 4.046,0.426 5.805,0.308c2.169,-0.176 4.368,-0.352 6.598,-0.527c1.407,-0.058 2.814,-0.146 4.222,-0.265c1.877,-0.116 3.723,-0.409 5.541,-0.879c0,-0.645 -0.146,-1.7 -0.439,-3.167c-0.352,-1.816 -0.559,-2.872 -0.615,-3.166c0.057,-0.586 0.088,-1.437 0.088,-2.552c-0.234,-1.523 -0.471,-2.872 -0.703,-4.046c0.057,0 0.176,-0.088 0.352,-0.264c-0.061,-0.527 0.248,-0.996 0.924,-1.407c0.672,-0.41 1.391,-0.616 2.154,-0.616c0.41,0 0.762,0.088 1.055,0.265c0.529,0.294 0.938,0.982 1.232,2.066c0.293,1.086 0.381,2.038 0.264,2.859c-0.234,2.11 0,5.308 0.703,9.587c0.35,0.473 0.731,1.205 1.143,2.201z" fill="#ffffff"/></g><g><path d="M506.14315,166.95608c-0.04,0.17 -0.07,0.34 -0.12,0.51c-0.15,0.63 -0.46,2.12 -0.77,5.03c0,0.05 0,0.09 -0.01,0.12c1.71,6.88 -1.17,11.07 -3.08,12.98c-0.12,0.13 -0.25,0.25 -0.39,0.37c-1.87,1.7 -5.14,3.73 -10.02,3.73c-2.43,0 -4.7,-0.54 -6.68,-1.53c0.05,2.73 0.08,6.49 0.08,11.71c1.8,0.63 3.45,1.65 4.85,2.99c2.78,2.67 4.3,6.24 4.3,10.05c0,5.66 -3.26,10.58 -8.51,12.83c-0.13,0.06 -0.27,0.12 -0.4,0.17c-1.76,0.67 -3.74,1 -6.06,1c-0.84,0 -1.74,-0.04 -2.72,-0.13c-0.6,-0.03 -1.48,-0.02 -2.52,0.01c-1.89,0.21 -4.55,0.42 -8.11,0.62c-0.07,0 -0.14,0.01 -0.22,0.01c-0.47,0.02 -0.92,0.03 -1.36,0.03c-6.37,0 -11.02,-2.02 -13.83,-5.99c-0.06,-0.08 -0.11,-0.16 -0.16,-0.24c-2.86,-4.27 -2.94,-9.67 -0.22,-14.08c0.02,-0.05 0.05,-0.09 0.08,-0.14c1.73,-2.72 4.26,-4.66 7.54,-5.8c0.04,-1.93 0.03,-4.35 -0.03,-7.22c-1.63,0.68 -3.51,1.08 -5.62,1.08c-5.57,0 -10.17,-3.31 -11.77,-8.34c-0.33,-1.02 -0.64,-2.51 -1.36,-5.87c-0.03,-0.12 -0.05,-0.24 -0.07,-0.36l-1.48,-8.27c-0.05,-0.18 -0.12,-0.39 -0.2,-0.63c-0.77,-2.19 -1.13,-4.05 -1.13,-5.85c0,-2.23 0.65,-5.6 3.73,-8.96c1.55,-1.7 4.37,-3.9 8.91,-4.61c0.56,-0.09 1.13,-0.14 1.7,-0.14h11.06c0.25,0 0.5,0.01 0.75,0.03c4.22,0.15 8,0.14 11.24,-0.01c4.53,-0.2 9.05,-0.59 13.48,-1.16c0.5,-0.16 1.04,-0.32 1.62,-0.46c0.55,-0.14 1.11,-0.23 1.67,-0.29c4.26,-0.39 8.23,0.84 11.32,3.48c3.83,3.29 5.52,8.27 4.51,13.33z" fill="#1b75bb"/><path d="M495.35515,164.80008c-0.41,1.643 -0.762,3.87 -1.055,6.685c-0.119,1.408 -0.061,2.551 0.176,3.431c0.408,1.467 0.381,2.435 -0.088,2.903c-0.646,0.586 -1.525,0.879 -2.639,0.879c-1.291,0 -2.143,-0.383 -2.551,-1.151c-0.061,-2.362 -0.031,-4.578 0.088,-6.646c0.115,-2.54 0.176,-3.869 0.176,-3.987c-0.061,0 -0.148,-0.059 -0.264,-0.178c-5.455,0.237 -10.586,0.589 -15.394,1.059c-0.118,0.589 -0.118,1.528 0,2.82c0.233,1.822 0.352,2.88 0.352,3.172c-0.234,1.822 -0.352,4.524 -0.352,8.109c0.233,1.528 0.352,8.08 0.352,19.655v6.435c0,0.999 0.145,1.704 0.436,2.115h5.401c0.987,-0.117 1.785,0.118 2.396,0.704c0.609,0.587 0.914,1.29 0.914,2.11c0,1.289 -0.615,2.199 -1.847,2.728c-0.763,0.292 -2.111,0.352 -4.046,0.176c-0.938,-0.06 -2.317,-0.06 -4.135,0c-1.642,0.204 -4.28,0.409 -7.916,0.615c-3.167,0.117 -5.102,-0.323 -5.806,-1.319c-0.47,-0.703 -0.47,-1.437 0,-2.199c0.82,-1.289 2.961,-1.935 6.422,-1.935c1.231,0 1.992,-0.102 2.286,-0.307c0.293,-0.205 0.44,-0.601 0.44,-1.187c0,-0.526 0,-1.023 0,-1.492c0,-0.877 0,-2.165 0,-3.862c0.176,-2.983 0.176,-7.432 0,-13.343c-0.235,-8.485 -0.118,-15.945 0.352,-22.383c-0.059,-0.058 -0.147,-0.146 -0.266,-0.264c-2.123,0.118 -5.543,0.059 -10.26,-0.177c-0.531,0 -2.331,0.119 -5.396,0.353c0.762,5.337 1.231,9.354 1.407,12.051c0,0.352 -0.059,1.144 -0.176,2.375c-0.059,0.879 -0.792,1.319 -2.199,1.319c-0.763,0 -1.202,-0.262 -1.319,-0.785c-0.059,-0.115 -0.411,-1.687 -1.056,-4.711c-0.352,-1.977 -0.851,-4.769 -1.495,-8.375c0,-0.23 -0.206,-0.957 -0.615,-2.18c-0.35,-0.989 -0.525,-1.745 -0.525,-2.268c0,-0.406 0.277,-0.917 0.836,-1.526c0.557,-0.61 1.393,-1.004 2.507,-1.179c0.176,0 0.453,0 0.836,0c0.38,0 0.688,0 0.923,0c6.979,0 10.028,0 9.148,0c4.75,0.177 8.972,0.177 12.666,0c5.277,-0.233 10.495,-0.703 15.657,-1.407c0.352,-0.176 0.879,-0.352 1.582,-0.527c1.291,-0.117 2.346,0.176 3.168,0.88c0.82,0.702 1.113,1.641 0.879,2.814z" fill="#ffffff"/></g><g><path d="M335.43106,187.27211v4.84c0,2.87 -0.5,6.95 -1.57,12.84c-0.44,2.74 -1.28,5.56 -2.49,8.39c-0.02,0.04 -0.04,0.07 -0.05,0.11c-2.15,4.85 -5.69,9.08 -10.53,12.57c-5.16,3.71 -10.5,5.59 -15.89,5.59c-2.18,0 -4.26,-0.34 -6.21,-1c-6.91,-2.23 -12.37,-6.47 -16.22,-12.6c-0.83,-1.35 -1.65,-3.02 -2.67,-5.46c-0.02,-0.06 -0.04,-0.11 -0.07,-0.17c-1.26,-3.16 -1.93,-5.69 -2.11,-7.97c-0.03,-0.39 -0.14,-1.33 -0.5,-3.17c-0.13,-0.69 -0.2,-1.39 -0.2,-2.09v-4.28c-0.44,-1.69 -0.48,-3.5 -0.05,-5.29c0.16,-0.69 0.39,-1.36 0.67,-1.98c0,-1.22 0.21,-2.44 0.61,-3.6c0.11,-0.5 0.26,-0.99 0.44,-1.48c0.01,-0.01 0.19,-0.52 0.44,-1.93c0.3,-1.73 0.86,-3.96 1.7,-6.77c0.01,-0.03 0.02,-0.07 0.03,-0.1c1.63,-5.24 4.92,-10.21 10.06,-15.19c0.04,-0.04 0.07,-0.07 0.11,-0.1c2.6,-2.46 5.6,-4.02 8.92,-4.66c0.6,-0.11 1.21,-0.17 1.83,-0.19c0.38,-0.01 1.39,-0.07 3.04,-0.16c0.06,0 0.12,-0.01 0.18,-0.01c4.87,-0.2 9.48,0.84 13.75,3.07c4.93,2.52 8.83,6.31 11.6,11.27c1.31,2.35 2.43,5.2 3.43,8.74c1.17,4.01 1.75,7.54 1.75,10.78z" fill="#1b75bb"/><path d="M324.859,192.225c0,2.17 -0.471,5.836 -1.408,10.995c-0.293,1.877 -0.879,3.842 -1.76,5.894c-1.35,3.05 -3.65,5.748 -6.904,8.093c-3.255,2.345 -6.407,3.518 -9.456,3.518c-0.997,0 -1.906,-0.146 -2.727,-0.439c-4.457,-1.407 -7.916,-4.075 -10.379,-8.005c-0.471,-0.761 -1.086,-2.052 -1.848,-3.87c-0.821,-2.052 -1.275,-3.635 -1.363,-4.75c-0.088,-1.113 -0.308,-2.579 -0.66,-4.397v-6.51c0.234,-0.116 0.117,-0.292 -0.352,-0.527h0.528c0,-0.293 0.116,-0.85 0.352,-1.671c0.233,-0.821 0.352,-1.437 0.352,-1.848c0,-0.352 -0.088,-0.674 -0.264,-0.968c0.233,0 0.439,-0.088 0.615,-0.264c-0.059,-0.117 -0.206,-0.176 -0.439,-0.176c0.058,-0.058 0.161,-0.146 0.308,-0.264c0.146,-0.117 0.249,-0.205 0.309,-0.264c-0.06,-0.059 -0.132,-0.103 -0.221,-0.133c-0.088,-0.028 -0.162,-0.072 -0.22,-0.132c0.353,-0.938 0.674,-2.228 0.968,-3.87c0.233,-1.348 0.704,-3.195 1.407,-5.541c1.056,-3.4 3.46,-6.919 7.213,-10.556c1.056,-0.996 2.199,-1.612 3.431,-1.847c0.176,0 1.319,-0.059 3.431,-0.177c2.932,-0.116 5.687,0.499 8.268,1.848c2.992,1.525 5.336,3.812 7.037,6.861c0.881,1.583 1.701,3.724 2.463,6.421c0.881,2.99 1.32,5.571 1.32,7.74v4.839zM319.054,182.462c-0.35,-0.82 -0.76,-1.876 -1.227,-3.167c-0.586,-2.639 -2.325,-5.071 -5.217,-7.301c-2.893,-2.228 -5.566,-3.224 -8.021,-2.99c-1.11,0.118 -2.981,1.966 -5.612,5.542c-1.286,1.701 -2.571,5.102 -3.856,10.203c-1.169,4.75 -1.725,8.415 -1.665,10.995c0.116,3.284 0.292,5.571 0.526,6.86c0.408,2.405 1.285,4.604 2.629,6.598c1.286,1.759 2.28,2.902 2.981,3.431c2.629,1.877 5.112,2.814 7.451,2.814c0.525,0 1.022,-0.058 1.49,-0.176c1.11,-0.176 2.424,-0.908 3.944,-2.199c1.286,-1.173 2.25,-2.257 2.894,-3.255c0.876,-1.465 1.695,-3.664 2.455,-6.597c1.168,-4.28 1.754,-8.825 1.754,-13.634c0.002,-2.579 -0.174,-4.954 -0.526,-7.124z" fill="#ffffff"/></g><g><path d="M560.45234,223.46291c-2.51,1.79 -5.58,2.82 -9.11,3.03c-1.46,0.09 -2.88,0.17 -4.25,0.23c-0.75,0.05 -4.13,0.31 -15.47,1.21c-0.08,0.01 -0.17,0.01 -0.26,0.02c-1.96,0.11 -5.29,0.42 -9.91,0.93c-3.56,0.65 -4.49,0.76 -5.57,0.76c-4.77,0 -9.07,-1.88 -12.09,-5.28c-1.51,-1.7 -2.45,-3.83 -2.71,-6.08c-0.19,-1.72 -0.58,-5.18 1.42,-8.6c1.04,-1.81 3,-4.34 6.43,-6.01v-4.38c0,-1.79 -0.16,-5.58 -0.93,-13.49c-3.72,-1.47 -6.5,-4.3 -7.79,-8.05c-0.02,-0.06 -0.04,-0.12 -0.06,-0.19c-0.54,-1.64 -0.81,-3.3 -0.81,-4.94c0,-5.09 3.41,-13.71 16.19,-13.71c1.18,0 2.55,0.12 4.39,0.38c0.14,0.01 0.26,0.01 0.38,0.01c1.38,-0.16 3.82,-0.32 9.78,-0.39h0.14c5.32,0 8.56,2.26 10.35,4.17c2.35,2.5 3.64,5.83 3.64,9.37c0,4.99 -2.42,9.32 -6.48,11.65c-0.78,0.45 -1.61,0.83 -2.48,1.14c0.04,0.6 0.09,1.21 0.14,1.85c0.02,0.27 0.03,0.54 0.03,0.81v4.19c0.02,0.43 0.13,2.13 0.78,8.61c0.11,-0.01 0.22,-0.02 0.33,-0.03c-0.07,-0.38 -0.14,-0.74 -0.21,-1.1c-0.53,-2.68 -0.04,-5.44 1.34,-7.76c1.05,-2.18 2.76,-4.07 5.01,-5.44c2.37,-1.45 5.1,-2.22 7.87,-2.22c2.34,0 4.61,0.61 6.58,1.75c2.18,1.27 4.99,3.79 6.32,8.69c0.66,2.45 0.85,4.8 0.58,7.02c-0.03,0.3 -0.08,1.58 0.34,4.66c0.26,0.52 0.5,1.06 0.74,1.65c0.23,0.56 0.42,1.13 0.55,1.71c1.25,5.35 -0.75,10.65 -5.2,13.83z" fill="#1b75bb"/><path d="M554.94134,212.12991c0.232,0.998 -0.061,1.79 -0.881,2.375c-0.82,0.587 -1.949,0.924 -3.387,1.012c-1.438,0.088 -2.828,0.162 -4.178,0.22c-0.879,0.055 -6.128,0.466 -15.744,1.231c-2.229,0.124 -5.864,0.465 -10.907,1.021c-2.346,0.435 -3.665,0.65 -3.958,0.65c-1.643,0 -2.933,-0.528 -3.87,-1.584c-0.118,-1.056 -0.118,-1.671 0,-1.847c0.703,-1.289 2.022,-2.023 3.958,-2.199c1.583,-0.117 3.137,-0.233 4.662,-0.352c0.058,0 0.116,-0.059 0.176,-0.177c0.117,-2.403 -0.176,-5.159 -0.88,-8.268v-4.926c0,-3.049 -0.352,-8.15 -1.056,-15.306c-0.118,-1.759 -0.294,-4.31 -0.527,-7.652c-0.352,-0.233 -0.822,-0.321 -1.407,-0.264c-0.763,0.118 -1.231,0.146 -1.407,0.088c-0.88,-0.121 -1.79,-0.24 -2.728,-0.361c-1.173,-0.242 -1.906,-0.785 -2.198,-1.63c-0.177,-0.543 -0.265,-1.056 -0.265,-1.538c0,-1.811 1.729,-2.716 5.19,-2.716c0.703,0 1.816,0.118 3.342,0.352c1.231,0.06 2.053,0.06 2.463,0c1.231,-0.176 4.192,-0.293 8.885,-0.352c1.113,0 1.891,0.234 2.33,0.702c0.44,0.469 0.66,1.083 0.66,1.843c0,1.055 -0.323,1.757 -0.968,2.107c-0.879,0.527 -2.258,0.761 -4.134,0.702c-2.347,-0.058 -3.842,-0.029 -4.486,0.088c0.117,2.81 0.381,6.993 0.792,12.551v4.302c0,0.937 0.352,4.857 1.056,11.762c0.176,1.581 0.409,4.067 0.703,7.461c0.117,0.206 0.265,0.308 0.44,0.308c2.11,0.323 4.046,0.426 5.805,0.308c2.169,-0.176 4.368,-0.352 6.598,-0.527c1.407,-0.058 2.814,-0.146 4.222,-0.265c1.877,-0.116 3.723,-0.409 5.541,-0.879c0,-0.645 -0.146,-1.7 -0.439,-3.167c-0.352,-1.816 -0.559,-2.872 -0.615,-3.166c0.057,-0.586 0.088,-1.437 0.088,-2.552c-0.234,-1.523 -0.471,-2.872 -0.703,-4.046c0.057,0 0.176,-0.088 0.352,-0.264c-0.061,-0.527 0.248,-0.996 0.924,-1.407c0.672,-0.41 1.391,-0.616 2.154,-0.616c0.41,0 0.762,0.088 1.055,0.265c0.529,0.294 0.938,0.982 1.232,2.066c0.293,1.086 0.381,2.038 0.264,2.859c-0.234,2.11 0,5.308 0.703,9.587c0.35,0.473 0.731,1.205 1.143,2.201z" fill="#ffffff"/></g><g><path d="M444.862,182.384v4.84c0,2.87 -0.5,6.95 -1.57,12.84c-0.44,2.74 -1.28,5.56 -2.49,8.39c-0.02,0.04 -0.04,0.07 -0.05,0.11c-2.15,4.85 -5.69,9.08 -10.53,12.57c-5.16,3.71 -10.5,5.59 -15.89,5.59c-2.18,0 -4.26,-0.34 -6.21,-1c-6.91,-2.23 -12.37,-6.47 -16.22,-12.6c-0.83,-1.35 -1.65,-3.02 -2.67,-5.46c-0.02,-0.06 -0.04,-0.11 -0.07,-0.17c-1.26,-3.16 -1.93,-5.69 -2.11,-7.97c-0.03,-0.39 -0.14,-1.33 -0.5,-3.17c-0.13,-0.69 -0.2,-1.39 -0.2,-2.09v-4.28c-0.44,-1.69 -0.48,-3.5 -0.05,-5.29c0.16,-0.69 0.39,-1.36 0.67,-1.98c0,-1.22 0.21,-2.44 0.61,-3.6c0.11,-0.5 0.26,-0.99 0.44,-1.48c0.01,-0.01 0.19,-0.52 0.44,-1.93c0.3,-1.73 0.86,-3.96 1.7,-6.77c0.01,-0.03 0.02,-0.07 0.03,-0.1c1.63,-5.24 4.92,-10.21 10.06,-15.19c0.04,-0.04 0.07,-0.07 0.11,-0.1c2.6,-2.46 5.6,-4.02 8.92,-4.66c0.6,-0.11 1.21,-0.17 1.83,-0.19c0.38,-0.01 1.39,-0.07 3.04,-0.16c0.06,0 0.12,-0.01 0.18,-0.01c4.87,-0.2 9.48,0.84 13.75,3.07c4.93,2.52 8.83,6.31 11.6,11.27c1.31,2.35 2.43,5.2 3.43,8.74c1.17,4.01 1.75,7.54 1.75,10.78z" fill="#1b75bb"/><path d="M433.859,187.225c0,2.17 -0.471,5.836 -1.408,10.995c-0.293,1.877 -0.879,3.842 -1.76,5.894c-1.35,3.05 -3.65,5.748 -6.904,8.093c-3.255,2.345 -6.407,3.518 -9.456,3.518c-0.997,0 -1.906,-0.146 -2.727,-0.439c-4.457,-1.407 -7.916,-4.075 -10.379,-8.005c-0.471,-0.761 -1.086,-2.052 -1.848,-3.87c-0.821,-2.052 -1.275,-3.635 -1.363,-4.75c-0.088,-1.113 -0.308,-2.579 -0.66,-4.397v-6.51c0.234,-0.116 0.117,-0.292 -0.352,-0.527h0.528c0,-0.293 0.116,-0.85 0.352,-1.671c0.233,-0.821 0.352,-1.437 0.352,-1.848c0,-0.352 -0.088,-0.674 -0.264,-0.968c0.233,0 0.439,-0.088 0.615,-0.264c-0.059,-0.117 -0.206,-0.176 -0.439,-0.176c0.058,-0.058 0.161,-0.146 0.308,-0.264c0.146,-0.117 0.249,-0.205 0.309,-0.264c-0.06,-0.059 -0.132,-0.103 -0.221,-0.133c-0.088,-0.028 -0.162,-0.072 -0.22,-0.132c0.353,-0.938 0.674,-2.228 0.968,-3.87c0.233,-1.348 0.704,-3.195 1.407,-5.541c1.056,-3.4 3.46,-6.919 7.213,-10.556c1.056,-0.996 2.199,-1.612 3.431,-1.847c0.176,0 1.319,-0.059 3.431,-0.177c2.932,-0.116 5.687,0.499 8.268,1.848c2.992,1.525 5.336,3.812 7.037,6.861c0.881,1.583 1.701,3.724 2.463,6.421c0.881,2.99 1.32,5.571 1.32,7.74v4.839zM428.054,177.462c-0.35,-0.82 -0.76,-1.876 -1.227,-3.167c-0.586,-2.639 -2.325,-5.071 -5.217,-7.301c-2.893,-2.228 -5.566,-3.224 -8.021,-2.99c-1.11,0.118 -2.981,1.966 -5.612,5.542c-1.286,1.701 -2.571,5.102 -3.856,10.203c-1.169,4.75 -1.725,8.415 -1.665,10.995c0.116,3.284 0.292,5.571 0.526,6.86c0.408,2.405 1.285,4.604 2.629,6.598c1.286,1.759 2.28,2.902 2.981,3.431c2.629,1.877 5.112,2.814 7.451,2.814c0.525,0 1.022,-0.058 1.49,-0.176c1.11,-0.176 2.424,-0.908 3.944,-2.199c1.286,-1.173 2.25,-2.257 2.894,-3.255c0.876,-1.465 1.695,-3.664 2.455,-6.597c1.168,-4.28 1.754,-8.825 1.754,-13.634c0.002,-2.579 -0.174,-4.954 -0.526,-7.124z" fill="#ffffff"/></g><g><path d="M280.58,214c-2.4,1.65 -5.27,2.6 -8.3,2.76c-0.42,0.03 -0.83,0.03 -1.24,0c-1.49,-0.08 -4.08,-0.06 -7.43,0.08c-1.92,0.24 -4.37,0.37 -7.6,0.38c-0.26,0.04 -0.59,0.09 -0.99,0.16c-2.51,0.42 -4.38,0.53 -6.08,0.41c-2.08,2.28 -4.91,3.71 -8.11,3.97c-0.1,0.01 -0.19,0.01 -0.29,0.02c-0.53,0.03 -1.06,0.04 -1.57,0.04c-3.27,0 -6.27,-0.61 -8.9,-1.82c-0.06,-0.02 -0.12,-0.05 -0.18,-0.08c-0.25,-0.08 -0.97,-0.29 -2.44,-0.6c-1.42,-0.23 -3.44,-0.57 -6.09,-1.03c-1.33,-0.22 -2.75,-0.45 -4.2,-0.68c-0.4,-0.06 -0.79,-0.15 -1.18,-0.26c-6.45,-1.77 -10.63,-6.9 -10.63,-13.06c0,-1.65 0.33,-3.3 0.97,-4.9c0.43,-1.06 1.02,-2.05 1.75,-2.93c1.14,-1.36 2.91,-3.23 5.61,-4.34c2.65,-1.16 5.55,-1.76 8.63,-1.77c0.87,-1.6 1.16,-2.05 1.43,-2.46c0.41,-0.61 1.14,-1.67 2.91,-4.08c-0.83,-1.1 -1.72,-2.29 -2.68,-3.57c-0.04,-0.06 -0.07,-0.11 -0.11,-0.16c-0.91,-1.27 -2.24,-3.08 -3.96,-5.41c-0.4,-0.02 -0.77,-0.04 -1.12,-0.08c-0.09,-0.01 -0.18,-0.02 -0.27,-0.03c-10.17,-1.27 -12.62,-8.33 -13.18,-10.92c-0.22,-1.04 -0.33,-2.07 -0.33,-3.08c0,-4.85 2.47,-9.25 6.76,-11.74c2.5,-1.46 5.36,-2.32 8.47,-2.57c0.29,-0.02 0.58,-0.03 0.87,-0.03c1.08,0 2.15,-0.03 3.18,-0.08h0.12c1.44,-0.05 3.59,-0.16 6.44,-0.31c0.39,-0.06 0.81,-0.15 1.24,-0.24c0.31,-0.07 0.63,-0.12 0.94,-0.16c2.11,-0.26 3.89,-0.33 5.33,-0.24c2.17,0.11 4.16,0.68 5.88,1.63c2.08,-1.3 4.61,-2.14 7.56,-2.52c2.96,-0.37 6.19,-0.54 9.95,-0.54c0.48,0 1.78,-0.02 5.16,-0.16c0.07,-0.01 0.13,-0.01 0.2,-0.01c2.5,-0.06 4.4,-0.09 5.81,-0.09c0.47,0 0.93,0.03 1.39,0.09c2.58,0.32 6.28,1.66 9.3,6.14c1.26,1.86 2.98,5.53 1.68,10.61c-1.04,4.54 -3.67,7.03 -5.43,8.23c-2.37,1.65 -5.24,2.46 -8.76,2.46c-0.6,0 -1.22,-0.03 -1.87,-0.07c-2.17,3.17 -4.72,6.95 -7.62,11.33c1.56,1.95 3.32,4.18 5.3,6.69h0.6l4.09,-0.17c0.27,-0.01 0.54,-0.01 0.8,0c8.27,0.27 11.62,4.88 12.88,7.61c0.05,0.09 0.09,0.19 0.13,0.29c0.49,1.13 0.84,2.28 1.05,3.42c1.05,5.42 -1.18,10.71 -5.87,13.87z" fill="#1b75bb"/><path d="M275.64,202.174c0.233,1.115 -0.177,2.023 -1.232,2.727c-0.763,0.528 -1.671,0.822 -2.727,0.88c-1.994,-0.117 -5.014,-0.088 -9.06,0.088c-1.525,0.235 -3.93,0.352 -7.213,0.352c-0.234,0 -0.968,0.104 -2.199,0.309c-1.231,0.206 -2.198,0.308 -2.902,0.308c-2.639,0 -3.753,-1.261 -3.343,-3.782c0.88,-1.056 2.023,-1.686 3.431,-1.892c1.407,-0.204 2.785,-0.396 4.135,-0.571c-1.643,-2.228 -5.073,-6.45 -10.292,-12.666c-1.643,1.759 -3.549,4.397 -5.717,7.916c-1.467,2.405 -2.934,4.78 -4.398,7.125c0.704,0.646 2.257,1.174 4.662,1.583c1.816,0.294 2.902,1.262 3.254,2.902c-0.059,-0.176 -0.234,0.089 -0.527,0.792c0,0.235 -0.03,0.559 -0.088,0.968c-0.294,0.998 -0.792,1.525 -1.495,1.583c-2.111,0.118 -3.87,-0.146 -5.278,-0.791c-0.879,-0.469 -2.609,-0.968 -5.189,-1.495c-1.407,-0.234 -3.489,-0.586 -6.245,-1.057c-1.407,-0.233 -2.845,-0.468 -4.31,-0.703c-1.702,-0.469 -2.552,-1.289 -2.552,-2.463c0,-0.233 0.059,-0.498 0.177,-0.792c0.585,-0.703 1.055,-1.113 1.407,-1.231c2.169,-0.996 4.778,-1.172 7.828,-0.527c0.938,0.176 1.729,0.264 2.375,0.264c0.527,-0.527 1.319,-1.759 2.375,-3.694c1.349,-2.521 2.14,-3.958 2.375,-4.311c0.938,-1.407 3.459,-4.837 7.564,-10.291c-1.877,-2.345 -4.428,-5.688 -7.652,-10.027c-1.174,-1.641 -3.05,-4.192 -5.63,-7.652c-1.231,-1.584 -1.965,-2.375 -2.199,-2.375c-0.176,0 -0.967,0 -2.374,0c-1.231,0.059 -2.142,0.059 -2.728,0c-2.287,-0.286 -3.548,-1.057 -3.782,-2.316c-0.294,-1.371 0.102,-2.37 1.188,-3c1.085,-0.63 2.36,-1 3.826,-1.116c1.231,0 2.463,-0.027 3.694,-0.085c1.584,-0.058 3.987,-0.172 7.213,-0.344c0.762,-0.116 1.554,-0.264 2.375,-0.439c1.407,-0.176 2.521,-0.233 3.343,-0.176c1.465,0.059 2.199,0.851 2.199,2.375c0,0.997 -0.295,1.847 -0.88,2.551c-0.646,0.234 -1.481,0.455 -2.507,0.659c-1.026,0.206 -2.361,0.427 -4.002,0.66c-0.176,0.411 0.264,1.262 1.319,2.551c1.523,1.935 2.345,2.99 2.463,3.166c0.996,1.584 2.287,3.314 3.87,5.19c2.111,2.639 3.371,4.222 3.782,4.75c2.169,-2.463 4.398,-5.395 6.685,-8.797c1.7,-2.639 3.4,-5.277 5.102,-7.916c0.176,-0.233 0.265,-0.586 0.265,-1.056c-0.411,-0.058 -0.851,-0.088 -1.319,-0.088c-0.353,0 -0.836,0.044 -1.451,0.132c-0.616,0.088 -1.042,0.132 -1.276,0.132c-1.055,0 -2.053,-0.645 -2.99,-1.935c-0.352,-1.817 1.056,-2.932 4.222,-3.343c2.404,-0.293 5.248,-0.439 8.532,-0.439c0.997,0 2.873,-0.059 5.63,-0.177c2.342,-0.06 4.189,-0.09 5.538,-0.09c0.469,0.06 0.997,0.528 1.584,1.407c0.292,0.411 0.321,1.027 0.088,1.848c-0.177,0.88 -0.499,1.467 -0.97,1.759c-0.646,0.471 -1.995,0.616 -4.049,0.44c-1.35,-0.117 -3.404,-0.088 -6.162,0.088c-3.64,5.165 -8.774,12.794 -15.405,22.888c2.585,3.162 6.435,7.993 11.549,14.491c0.292,0.47 0.585,0.94 0.879,1.41c0.469,0.705 0.938,1.087 1.407,1.145c1.29,0 3.252,0 5.891,0c1.408,-0.058 2.844,-0.116 4.311,-0.176c1.817,0.06 2.901,0.471 3.253,1.231c0.175,0.411 0.292,0.792 0.352,1.143z" fill="#ffffff"/></g><g><path d="M215.16,217.29c-0.11,0.14 -0.22,0.28 -0.35,0.42c-2.16,2.47 -4.96,3.72 -6.92,4.44c-3.71,1.46 -6.89,3.23 -9.44,5.26c-0.13,0.11 -0.26,0.21 -0.4,0.31c-2.48,1.79 -5.58,2.74 -9.5,2.87c-0.13,0.01 -0.26,0.01 -0.39,0.01c-3.04,0 -5.96,-1.08 -8.44,-3.12c-1.21,-0.99 -2.21,-2.16 -2.98,-3.45c-1.61,0.62 -3.34,0.94 -5.11,0.94c-0.66,0 -1.29,-0.05 -1.91,-0.16c-0.42,-0.06 -1.3,-0.18 -2.66,-0.37c-0.28,-0.03 -1.61,-0.16 -7.52,-0.65c-0.06,0 -0.12,-0.01 -0.18,-0.02c-4.24,-0.42 -7.03,-1.21 -9.35,-2.64c-0.11,-0.06 -0.22,-0.13 -0.32,-0.21c-3.56,-2.37 -5.69,-6.32 -5.69,-10.55c0,-6.84 4.54,-12.19 11.3,-13.32c0.09,-0.01 0.17,-0.02 0.26,-0.04c0.81,-0.11 1.66,-0.16 2.53,-0.17c0.02,-0.15 0.05,-0.3 0.08,-0.46c0.04,-0.22 0.09,-0.44 0.15,-0.66c0.89,-3.54 1.81,-7.6 2.76,-12.16c-3.61,-0.58 -6.06,-2.66 -6.95,-3.42c-1.53,-1.3 -2.68,-3 -3.32,-4.9c-1.54,-4.63 -0.34,-9.67 3.14,-13.16c2.15,-2.15 4.83,-3.56 7.73,-4.07c0.63,-0.11 1.61,-0.29 2.95,-0.56l0.15,-0.03c2.97,-0.55 6.38,-0.95 10.43,-1.22c2.92,-0.2 2.92,-0.2 3.36,-0.2c0.46,0 0.92,0.03 1.38,0.09c4.28,0.54 8,2.96 10.19,6.66c1.02,1.71 1.83,3.8 2.58,6.6c0.45,1.66 0.67,2.39 0.76,2.66c0.2,0.47 0.49,1.12 0.86,1.95c0.15,0.33 0.28,0.67 0.39,1.01c0.01,0.02 0.19,0.54 0.88,2.04c0.05,0.12 0.1,0.23 0.15,0.35c1.35,3.22 3.46,8.26 6.33,15.12c0.05,0.13 0.11,0.26 0.16,0.39c0.31,0.83 0.68,1.81 1.11,2.93c3.59,-0.27 7.08,0.87 9.96,3.23c0.29,0.23 0.57,0.48 0.83,0.74c2.74,2.74 3.32,6.14 3.51,7.26c0.05,0.34 0.09,0.68 0.12,1.03c0.33,4.48 -1.24,7.49 -2.62,9.23zM168.43,224.51c-1.25,-0.39 -2.42,-0.99 -3.44,-1.76c1.02,0.78 2.18,1.39 3.44,1.76z" fill="#1b75bb"/><path d="M206.546,210.454c-0.412,0.47 -1.262,0.938 -2.551,1.407c-4.811,1.877 -8.943,4.193 -12.402,6.949c-0.646,0.469 -1.791,0.732 -3.432,0.791c-0.47,0 -0.954,-0.206 -1.451,-0.615c-0.499,-0.41 -0.748,-0.88 -0.748,-1.407c0,-0.704 0.792,-1.612 2.375,-2.728c1.113,-0.703 2.229,-1.437 3.344,-2.199c0.057,-0.292 -0.91,-3.752 -2.906,-10.379c-3.228,-0.058 -8.305,0.996 -15.229,3.165c-0.412,0.118 -0.647,0.352 -0.705,0.704c-0.059,0.352 -0.147,0.937 -0.264,1.758c-0.113,0.176 -0.225,0.439 -0.337,0.791c0,0.235 0.337,0.485 1.012,0.749c0.673,0.265 1.1,0.515 1.275,0.748c0.176,0.235 0.264,0.527 0.264,0.88c0,0.703 -0.308,1.364 -0.924,1.98c-0.615,0.615 -1.363,0.923 -2.242,0.923c0.058,0 -0.998,-0.146 -3.167,-0.439c-0.411,-0.058 -3.079,-0.293 -8.005,-0.703c-2.346,-0.234 -3.9,-0.586 -4.661,-1.056c-0.528,-0.352 -0.792,-0.821 -0.792,-1.407c0,-1.408 0.704,-2.229 2.111,-2.463c0.82,-0.117 1.876,-0.059 3.166,0.176c0.293,0.118 2.608,0.322 6.949,0.615c0.352,-2.463 0.938,-5.894 1.759,-10.291c1.817,-7.213 3.724,-16.361 5.718,-27.444c-0.587,-0.116 -1.202,-0.176 -1.847,-0.176c-1.115,0 -2.771,0.323 -4.971,0.968c-2.198,0.646 -3.826,0.968 -4.882,0.968c-0.41,0 -0.997,-0.321 -1.759,-0.968c-0.235,-0.704 -0.074,-1.333 0.483,-1.891c0.557,-0.557 1.173,-0.894 1.848,-1.012c0.674,-0.117 1.744,-0.322 3.211,-0.616c2.521,-0.469 5.57,-0.82 9.147,-1.056c1.7,-0.116 2.58,-0.176 2.639,-0.176c0.938,0.118 1.642,0.572 2.111,1.363c0.469,0.792 0.938,2.067 1.407,3.826c0.586,2.171 0.981,3.49 1.188,3.959c0.205,0.47 0.542,1.231 1.012,2.287c0.233,0.703 0.673,1.759 1.319,3.166c1.349,3.226 3.459,8.269 6.334,15.129c1.055,2.815 2.727,7.097 5.014,12.843c0.996,-0.117 2.287,-0.616 3.869,-1.495c1.584,-0.88 2.756,-1.319 3.52,-1.319c0.703,0 1.377,0.264 2.023,0.791c0.176,0.176 0.32,0.616 0.439,1.319c0.059,0.764 -0.029,1.292 -0.262,1.585zM187.018,197.703c-1.001,-1.935 -2.264,-4.869 -3.792,-8.8c-0.588,-1.349 -2.174,-4.868 -4.761,-10.56l-4.35,22.176c5.267,-0.996 9.391,-1.759 12.376,-2.288c0.351,-0.233 0.527,-0.41 0.527,-0.528z" fill="#ffffff"/></g></g></g></g></g></svg>